<svg id="Layer_1" data-name="Layer 1" xmlns="http://www.w3.org/2000/svg" viewBox="0 0 438.82 201.44"><defs><style>.cls-1{fill:#5B4A58;}</style></defs><path d="M26.32,200.72v-84h7.32L72,182.26H68.2l38-65.52h7.32v84H105V130h2L72,190H67.8L32.52,130H34.8v70.68Z" transform="translate(0 -0.02)"/><path d="M177.64,201.46a47.59,47.59,0,0,1-17.58-3.18,41.38,41.38,0,0,1-23.28-22.56,45.34,45.34,0,0,1,0-34A41.55,41.55,0,0,1,160,119.16a50.18,50.18,0,0,1,35.16,0,42.17,42.17,0,0,1,14,8.94,40.92,40.92,0,0,1,9.26,13.62,45.64,45.64,0,0,1,0,34.08,40.76,40.76,0,0,1-9.24,13.56,42.17,42.17,0,0,1-14,8.94A47.16,47.16,0,0,1,177.64,201.46Zm0-7.92a37.26,37.26,0,0,0,14-2.58,33.12,33.12,0,0,0,11.16-7.32,34.28,34.28,0,0,0,7.38-11,37.7,37.7,0,0,0,0-27.72,34,34,0,0,0-7.38-11,32.83,32.83,0,0,0-11.16-7.32,37.06,37.06,0,0,0-14-2.58,37.65,37.65,0,0,0-14,2.58A33.49,33.49,0,0,0,144.92,145a37.55,37.55,0,0,0,0,27.66A33.35,33.35,0,0,0,163.64,191a37.65,37.65,0,0,0,14,2.5Z" transform="translate(0 -0.02)"/><path d="M278.32,201.46a47.59,47.59,0,0,1-17.58-3.18,41.39,41.39,0,0,1-23.32-22.56,45.34,45.34,0,0,1,0-34,41.55,41.55,0,0,1,23.22-22.56,50.18,50.18,0,0,1,35.16,0,42.17,42.17,0,0,1,14,8.94A40.76,40.76,0,0,1,319,141.66a45.64,45.64,0,0,1,0,34.08,40.76,40.76,0,0,1-9.24,13.56,42.17,42.17,0,0,1-14,8.94A47.27,47.27,0,0,1,278.32,201.46Zm0-7.92a37.26,37.26,0,0,0,14-2.58,33.12,33.12,0,0,0,11.16-7.32,34.28,34.28,0,0,0,7.38-11,37.7,37.7,0,0,0,0-27.72,34,34,0,0,0-7.38-11,32.83,32.83,0,0,0-11.16-7.32,37.06,37.06,0,0,0-14-2.58,37.65,37.65,0,0,0-14,2.58A33.49,33.49,0,0,0,245.6,145a37.55,37.55,0,0,0,0,27.66A33.35,33.35,0,0,0,264.32,191a37.65,37.65,0,0,0,14,2.5Z" transform="translate(0 -0.02)"/><path d="M342.28,200.72v-84h7.32l58,73h-3.84v-73h8.76v84H405.2l-57.84-73h3.84v73Z" transform="translate(0 -0.02)"/><path d="M0,84.72,38.42.72h8.76l38.4,84H76.22L40.92,5.88h3.6L9.24,84.72ZM15.12,62.26l2.64-7.2H66.6l2.64,7.2Z" transform="translate(0 -0.02)"/><path d="M99.52,84.72V.72h8.9V77h47v7.68Z" transform="translate(0 -0.02)"/><path class="cls-1" d="M205.2,85.44a47.59,47.59,0,0,1-17.58-3.18,41.37,41.37,0,0,1-23.28-22.54,45.34,45.34,0,0,1,0-34A41.53,41.53,0,0,1,187.52,3.2a50.18,50.18,0,0,1,35.16,0,42.17,42.17,0,0,1,14,8.94,40.75,40.75,0,0,1,9.24,13.58,45.64,45.64,0,0,1,0,34.08,40.76,40.76,0,0,1-9.24,13.56,42.17,42.17,0,0,1-14,8.94A47.27,47.27,0,0,1,205.2,85.44Zm0-7.92a37.26,37.26,0,0,0,14-2.58,33.12,33.12,0,0,0,11.16-7.32,34.28,34.28,0,0,0,7.38-11,37.7,37.7,0,0,0,0-27.72,34,34,0,0,0-7.38-11,32.83,32.83,0,0,0-11.16-7.32A37.06,37.06,0,0,0,205.2,8a37.65,37.65,0,0,0-14,2.58,33.49,33.49,0,0,0-18.72,18.36,37.55,37.55,0,0,0,0,27.66A33.35,33.35,0,0,0,191.2,75,37.65,37.65,0,0,0,205.2,77.52Z" transform="translate(0 -0.02)"/><path d="M278,84.72h-8.88V.72H278ZM331.42,46H277.08v-7.8h54.34ZM330.6.72h8.76v84H330.6Z" transform="translate(0 -0.02)"/><path d="M353.28,84.72l38.4-84h8.74l38.4,84h-9.3L394.24,5.88h3.6L362.52,84.72Zm15.14-22.46,2.64-7.2H419.9l2.64,7.2Z" transform="translate(0 -0.02)"/><ellipse class="cls-1" cx="194.76" cy="42.7" rx="26.24" ry="41"/></svg>