<svg id="Layer_1" data-name="Layer 1"
    xmlns="http://www.w3.org/2000/svg" viewBox="0 0 651.6 229.44">
    <path d="M130.48,217.46l38.4-84h8.76l38.4,84h-9.36L171.4,138.62H175l-35.28,78.84ZM145.6,195l2.64-7.2h48.84l2.64,7.2Z" transform="translate(-130.48 -132.74)"/>
    <path d="M230,217.46v-84h8.88v76.32h47v7.68Z" transform="translate(-130.48 -132.74)"/>
    <path d="M335.68,218.18A47.69,47.69,0,0,1,318.1,215a41.37,41.37,0,0,1-23.28-22.56,45.33,45.33,0,0,1,0-34A41.5,41.5,0,0,1,318,135.92a50.18,50.18,0,0,1,35.16,0,42.07,42.07,0,0,1,14,8.94,40.84,40.84,0,0,1,9.24,13.56,45.64,45.64,0,0,1,0,34.08,40.84,40.84,0,0,1-9.24,13.56,42.07,42.07,0,0,1-14,8.94A47.22,47.22,0,0,1,335.68,218.18Zm0-7.92a37.15,37.15,0,0,0,14-2.58,33,33,0,0,0,11.16-7.32,34.07,34.07,0,0,0,7.38-11,37.7,37.7,0,0,0,0-27.72,34.07,34.07,0,0,0-7.38-11,33,33,0,0,0-11.16-7.32,37.15,37.15,0,0,0-14-2.58,37.61,37.61,0,0,0-14,2.58,33.49,33.49,0,0,0-18.72,18.36,37.55,37.55,0,0,0,0,27.66,33.35,33.35,0,0,0,18.72,18.42A37.61,37.61,0,0,0,335.68,210.26Z" transform="translate(-130.48 -132.74)"/>
    <path d="M408.52,217.46h-8.88v-84h8.88Zm53.4-38.76H407.56v-7.8h54.36Zm-.84-45.24h8.76v84h-8.76Z" transform="translate(-130.48 -132.74)"/>
    <path d="M483.76,217.46l38.4-84h8.76l38.4,84H560l-35.28-78.84h3.6L493,217.46ZM498.88,195l2.64-7.2h48.84L553,195Z" transform="translate(-130.48 -132.74)"/>
    <path d="M395.92,361.46v-84h7.32L441.64,343H437.8l38-65.52h7.32v84h-8.52V290.78h2l-35,60h-4.2l-35.28-60h2.28v70.68Z" transform="translate(-130.48 -132.74)"/>
    <path d="M547.24,362.18A47.69,47.69,0,0,1,529.66,359a41.37,41.37,0,0,1-23.28-22.56,45.33,45.33,0,0,1,0-34,41.5,41.5,0,0,1,23.22-22.56,50.18,50.18,0,0,1,35.16,0,42.07,42.07,0,0,1,14,8.94A40.84,40.84,0,0,1,588,302.42a45.64,45.64,0,0,1,0,34.08,40.84,40.84,0,0,1-9.24,13.56,42.07,42.07,0,0,1-14,8.94A47.22,47.22,0,0,1,547.24,362.18Zm0-7.92a37.15,37.15,0,0,0,14-2.58,33,33,0,0,0,11.16-7.32,34.07,34.07,0,0,0,7.38-11,37.7,37.7,0,0,0,0-27.72,34.07,34.07,0,0,0-7.38-11,33,33,0,0,0-11.16-7.32,37.15,37.15,0,0,0-14-2.58,37.61,37.61,0,0,0-14,2.58,33.49,33.49,0,0,0-18.72,18.36,37.55,37.55,0,0,0,0,27.66,33.35,33.35,0,0,0,18.72,18.42A37.61,37.61,0,0,0,547.24,354.26Z" transform="translate(-130.48 -132.74)"/>
    <path d="M647.92,362.18A47.69,47.69,0,0,1,630.34,359a41.37,41.37,0,0,1-23.28-22.56,45.33,45.33,0,0,1,0-34,41.5,41.5,0,0,1,23.22-22.56,50.18,50.18,0,0,1,35.16,0,42.07,42.07,0,0,1,14,8.94,40.84,40.84,0,0,1,9.24,13.56,45.64,45.64,0,0,1,0,34.08,40.84,40.84,0,0,1-9.24,13.56,42.07,42.07,0,0,1-14,8.94A47.22,47.22,0,0,1,647.92,362.18Zm0-7.92a37.15,37.15,0,0,0,14-2.58,33,33,0,0,0,11.16-7.32,34.07,34.07,0,0,0,7.38-11,37.7,37.7,0,0,0,0-27.72,34.07,34.07,0,0,0-7.38-11,33,33,0,0,0-11.16-7.32,37.15,37.15,0,0,0-14-2.58,37.61,37.61,0,0,0-14,2.58,33.49,33.49,0,0,0-18.72,18.36,37.55,37.55,0,0,0,0,27.66,33.35,33.35,0,0,0,18.72,18.42A37.61,37.61,0,0,0,647.92,354.26Z" transform="translate(-130.48 -132.74)"/>
    <path d="M711.88,361.46v-84h7.32l58,73h-3.84v-73h8.76v84h-7.32l-57.84-73h3.84v73Z" transform="translate(-130.48 -132.74)"/>
    <ellipse cx="202.02" cy="48.26" rx="34.5" ry="36"/>
</svg>