<svg id="Layer_1" data-name="Layer 1" xmlns="http://www.w3.org/2000/svg" viewBox="0 0 485.42 207.46"><path d="M379.8,437V353h7.32l38.4,65.54h-3.84l38-65.52H467v84h-8.52v-70.7h2l-35,60h-4.2l-35.28-60h2.28V437Z" transform="translate(-280.58 -230.28)"/><path d="M531.12,437.74a47.59,47.59,0,0,1-17.58-3.18A41.38,41.38,0,0,1,490.26,412a45.34,45.34,0,0,1,0-34,41.55,41.55,0,0,1,23.22-22.56,50.18,50.18,0,0,1,35.16,0,42.17,42.17,0,0,1,14,8.94,40.93,40.93,0,0,1,9.24,13.6,45.64,45.64,0,0,1,0,34.08,40.76,40.76,0,0,1-9.24,13.56,42.17,42.17,0,0,1-14,8.94A47.28,47.28,0,0,1,531.12,437.74Zm0-7.92a37.26,37.26,0,0,0,14-2.58,33.12,33.12,0,0,0,11.16-7.32,34.12,34.12,0,0,0,7.38-11,37.7,37.7,0,0,0,0-27.72,34,34,0,0,0-7.38-11,32.83,32.83,0,0,0-11.16-7.32,37.06,37.06,0,0,0-14-2.58,37.65,37.65,0,0,0-14,2.58,33.49,33.49,0,0,0-18.72,18.36,37.55,37.55,0,0,0,0,27.66,33.35,33.35,0,0,0,18.72,18.42,37.65,37.65,0,0,0,14,2.5Z" transform="translate(-280.58 -230.28)"/><path d="M631.8,437.74a47.59,47.59,0,0,1-17.58-3.18A41.38,41.38,0,0,1,590.94,412a45.34,45.34,0,0,1,0-34,41.52,41.52,0,0,1,23.22-22.56,50.18,50.18,0,0,1,35.16,0,42.17,42.17,0,0,1,14,8.94,40.76,40.76,0,0,1,9.24,13.56,45.64,45.64,0,0,1,0,34.08,40.76,40.76,0,0,1-9.24,13.56,42.17,42.17,0,0,1-14,8.94A47.28,47.28,0,0,1,631.8,437.74Zm0-7.92a37.26,37.26,0,0,0,14-2.58A33.12,33.12,0,0,0,657,419.92a34.12,34.12,0,0,0,7.38-11,37.7,37.7,0,0,0,0-27.72,34,34,0,0,0-7.38-11,32.83,32.83,0,0,0-11.16-7.32,37.06,37.06,0,0,0-14-2.58,37.65,37.65,0,0,0-14,2.58,33.49,33.49,0,0,0-18.72,18.36,37.55,37.55,0,0,0,0,27.66,33.35,33.35,0,0,0,18.72,18.42,37.65,37.65,0,0,0,14,2.5Z" transform="translate(-280.58 -230.28)"/><path d="M695.76,437V353h7.32l58,73h-3.84V353H766v84h-7.32l-57.84-73h3.84v73Z" transform="translate(-280.58 -230.28)"/><path d="M280.58,315,319,231h8.76l38.4,84h-9.36L321.5,236.16h3.6L289.82,315Zm15.12-22.46,2.64-7.2h48.84l2.64,7.2Z" transform="translate(-280.58 -230.28)"/><path d="M380.1,315V231H389v76.32h47V315Z" transform="translate(-280.58 -230.28)"/><path d="M485.78,315.72a47.59,47.59,0,0,1-17.58-3.18A41.38,41.38,0,0,1,444.92,290a45.34,45.34,0,0,1,0-34,41.53,41.53,0,0,1,23.18-22.52,50.18,50.18,0,0,1,35.16,0,42.17,42.17,0,0,1,14,8.94A40.76,40.76,0,0,1,526.5,256a45.64,45.64,0,0,1,0,34.08,40.76,40.76,0,0,1-9.24,13.56,42.17,42.17,0,0,1-14,8.94A47.23,47.23,0,0,1,485.78,315.72Zm0-7.92a37.26,37.26,0,0,0,14-2.58,33.12,33.12,0,0,0,11.16-7.32,34.12,34.12,0,0,0,7.38-11,37.7,37.7,0,0,0,0-27.72,34,34,0,0,0-7.38-11,32.83,32.83,0,0,0-11.16-7.32,37.06,37.06,0,0,0-14-2.58,37.65,37.65,0,0,0-14,2.58,33.49,33.49,0,0,0-18.72,18.36,37.55,37.55,0,0,0,0,27.66,33.35,33.35,0,0,0,18.72,18.42A37.65,37.65,0,0,0,485.78,307.8Z" transform="translate(-280.58 -230.28)"/><path d="M558.62,315h-8.88V231h8.88ZM612,276.24H557.66v-7.8H612ZM611.18,231h8.76v84h-8.76Z" transform="translate(-280.58 -230.28)"/><path d="M633.86,315l38.4-84H681l38.4,84H710.1l-35.28-78.84h3.6L643.1,315ZM649,292.54l2.64-7.2h48.84l2.64,7.2Z" transform="translate(-280.58 -230.28)"/><ellipse cx="194.76" cy="42.72" rx="26.24" ry="41"/></svg>