<?xml version="1.0" encoding="utf-8"?>
<!-- Generator: Adobe Illustrator 25.4.1, SVG Export Plug-In . SVG Version: 6.00 Build 0)  -->
<svg version="1.1" id="Layer_1" xmlns="http://www.w3.org/2000/svg" xmlns:xlink="http://www.w3.org/1999/xlink" x="0px" y="0px"
	 viewBox="0 0 896.1 85.5" style="enable-background:new 0 0 896.1 85.5;" xml:space="preserve">
<style type="text/css">
	.st0{fill:#93AB8C;}
</style>
<path d="M509.9,84.7v-84h7.3l38.4,65.5h-3.8l38-65.5h7.3v84h-8.5V14.1h2l-35,60h-4.2l-35.3-60h2.3v70.7L509.9,84.7L509.9,84.7z"/>
<path d="M661.2,85.5c-6,0.1-12-1-17.6-3.2c-10.5-4-18.9-12.2-23.3-22.6c-4.4-10.9-4.4-23.1,0-34c4.4-10.4,12.7-18.5,23.2-22.6
	c11.3-4.2,23.8-4.2,35.2,0c5.2,2,10,5.1,14,8.9c4,3.9,7.1,8.5,9.3,13.6c4.4,10.9,4.4,23.1,0,34.1c-2.1,5.1-5.3,9.7-9.2,13.6
	c-4,3.9-8.8,6.9-14,8.9C673.2,84.5,667.2,85.6,661.2,85.5z M661.2,77.6c4.8,0,9.5-0.8,14-2.6c4.2-1.7,8-4.1,11.2-7.3
	c3.2-3.2,5.7-6.9,7.4-11c3.5-8.9,3.5-18.8,0-27.7c-1.7-4.1-4.2-7.9-7.4-11c-3.2-3.2-7-5.7-11.2-7.3c-4.5-1.8-9.2-2.6-14-2.6
	s-9.5,0.8-14,2.6c-8.5,3.3-15.2,10-18.7,18.4c-3.5,8.9-3.5,18.8,0,27.7c3.5,8.4,10.2,15.1,18.7,18.4
	C651.7,76.8,656.4,77.6,661.2,77.6z"/>
<ellipse class="st0" cx="194.8" cy="42.7" rx="26.2" ry="41"/>
<path d="M761.9,85.5c-6,0.1-12-1-17.6-3.2c-10.5-4-18.9-12.2-23.3-22.6c-4.4-10.9-4.4-23.1,0-34c4.4-10.4,12.7-18.5,23.2-22.6
	c11.3-4.2,23.8-4.2,35.2,0c5.2,2,10,5.1,14,8.9s7.1,8.5,9.2,13.6c4.4,10.9,4.4,23.1,0,34.1c-2.1,5.1-5.3,9.7-9.2,13.6
	c-4,3.9-8.8,6.9-14,8.9C773.8,84.4,767.9,85.5,761.9,85.5z M761.9,77.6c4.8,0,9.5-0.8,14-2.6c4.2-1.7,8-4.1,11.2-7.3
	c3.2-3.2,5.7-6.9,7.4-11c3.5-8.9,3.5-18.8,0-27.7c-1.7-4.1-4.2-7.9-7.4-11c-3.2-3.2-7-5.7-11.2-7.3c-4.5-1.8-9.2-2.7-14-2.6
	c-4.8,0-9.5,0.8-14,2.6c-8.5,3.3-15.2,10-18.7,18.4c-3.5,8.9-3.5,18.8,0,27.7c3.5,8.4,10.2,15.1,18.7,18.4
	C752.4,76.8,757.1,77.6,761.9,77.6z"/>
<path d="M825.9,84.7v-84h7.3l58,73h-3.8v-73h8.8v84h-7.3l-57.8-73h3.8v73H825.9z"/>
<path d="M0,84.7l38.4-84h8.8l38.4,84h-9.4L40.9,5.9h3.6L9.2,84.7H0z M15.1,62.3l2.6-7.2h48.8l2.6,7.2H15.1z"/>
<path d="M99.5,84.7v-84h8.9V77h47v7.7H99.5z"/>
<path class="st0" d="M205.2,85.5c-6,0.1-12-1-17.6-3.2c-10.5-4-18.9-12.2-23.3-22.5c-4.4-10.9-4.4-23.1,0-34
	c4.4-10.3,12.7-18.5,23.2-22.5c11.3-4.2,23.8-4.2,35.2,0c5.2,2,10,5.1,14,8.9c4,3.9,7.1,8.5,9.2,13.6c4.4,10.9,4.4,23.1,0,34.1
	c-2.1,5.1-5.3,9.7-9.2,13.6c-4,3.9-8.8,6.9-14,8.9C217.1,84.5,211.2,85.5,205.2,85.5z M205.2,77.5c4.8,0,9.5-0.8,14-2.6
	c4.2-1.7,8-4.1,11.2-7.3c3.2-3.2,5.7-6.9,7.4-11c3.5-8.9,3.5-18.8,0-27.7c-1.7-4.1-4.2-7.9-7.4-11c-3.2-3.2-7-5.7-11.2-7.3
	c-4.5-1.8-9.2-2.6-14-2.6s-9.5,0.8-14,2.6c-8.5,3.3-15.2,10-18.7,18.4c-3.5,8.9-3.5,18.8,0,27.7c3.5,8.4,10.2,15,18.7,18.3
	C195.7,76.7,200.4,77.6,205.2,77.5z"/>
<path d="M278,84.7h-8.9v-84h8.9V84.7z M331.4,46h-54.3v-7.8h54.4L331.4,46z M330.6,0.7h8.8v84h-8.8V0.7z"/>
<path d="M353.3,84.7l38.4-84h8.8l38.4,84h-9.3L394.2,5.9h3.6l-35.3,78.8C362.5,84.7,353.3,84.7,353.3,84.7z M368.4,62.3l2.6-7.2
	h48.8l2.6,7.2H368.4z"/>
</svg>
