<svg id="Layer_1" data-name="Layer 1" xmlns="http://www.w3.org/2000/svg" viewBox="0 0 554.52 203.44"><defs><style>.cls-1{fill:#93AB8C;}</style></defs><path d="M168.32,202.7v-84h7.32L214,184.24h-3.8l38-65.52h7.32v84H247V132h2l-35,60h-4.2l-35.28-60h2.28v70.68Z" transform="translate(0 0)"/><path d="M319.64,203.44a47.59,47.59,0,0,1-17.58-3.18,41.38,41.38,0,0,1-23.28-22.56,45.34,45.34,0,0,1,0-34A41.55,41.55,0,0,1,302,121.14a50.18,50.18,0,0,1,35.16,0,42.17,42.17,0,0,1,14,8.94,40.92,40.92,0,0,1,9.26,13.62,45.64,45.64,0,0,1,0,34.08,40.76,40.76,0,0,1-9.24,13.56,42.17,42.17,0,0,1-14,8.94A47.16,47.16,0,0,1,319.64,203.44Zm0-7.92a37.26,37.26,0,0,0,14-2.58,33.12,33.12,0,0,0,11.16-7.32,34.28,34.28,0,0,0,7.38-11,37.7,37.7,0,0,0,0-27.72,34,34,0,0,0-7.38-11,32.83,32.83,0,0,0-11.16-7.32,37.06,37.06,0,0,0-14-2.58,37.65,37.65,0,0,0-14,2.58A33.5,33.5,0,0,0,286.92,147a37.55,37.55,0,0,0,0,27.66A33.36,33.36,0,0,0,305.64,193a37.65,37.65,0,0,0,14,2.5Z" transform="translate(0 0)"/><path d="M420.32,203.44a47.59,47.59,0,0,1-17.58-3.18,41.39,41.39,0,0,1-23.32-22.56,45.34,45.34,0,0,1,0-34,41.55,41.55,0,0,1,23.22-22.56,50.18,50.18,0,0,1,35.16,0,42.17,42.17,0,0,1,14,8.94,40.8,40.8,0,0,1,9.2,13.56,45.64,45.64,0,0,1,0,34.08,40.76,40.76,0,0,1-9.24,13.56,42.17,42.17,0,0,1-14,8.94A47.31,47.31,0,0,1,420.32,203.44Zm0-7.92a37.26,37.26,0,0,0,14-2.58,33.12,33.12,0,0,0,11.16-7.32,34.28,34.28,0,0,0,7.38-11,37.7,37.7,0,0,0,0-27.72,34,34,0,0,0-7.38-11,32.83,32.83,0,0,0-11.16-7.32,37.06,37.06,0,0,0-14-2.58,37.65,37.65,0,0,0-14,2.58A33.5,33.5,0,0,0,387.6,147a37.55,37.55,0,0,0,0,27.66A33.36,33.36,0,0,0,406.32,193a37.65,37.65,0,0,0,14,2.5Z" transform="translate(0 0)"/><path d="M484.28,202.7v-84h7.32l58,73h-3.84v-73h8.76v84H547.2l-57.84-73h3.84v73Z" transform="translate(0 0)"/><path d="M0,84.7,38.42.7h8.76l38.4,84H76.22L40.92,5.86h3.6L9.24,84.7ZM15.12,62.24,17.76,55H66.6l2.64,7.2Z" transform="translate(0 0)"/><path d="M99.52,84.7V.7h8.9V77h47v7.68Z" transform="translate(0 0)"/><path class="cls-1" d="M205.2,85.42a47.59,47.59,0,0,1-17.58-3.18A41.37,41.37,0,0,1,164.34,59.7a45.34,45.34,0,0,1,0-34A41.53,41.53,0,0,1,187.52,3.18a50.18,50.18,0,0,1,35.16,0,42.17,42.17,0,0,1,14,8.94,40.75,40.75,0,0,1,9.24,13.58,45.64,45.64,0,0,1,0,34.08,40.76,40.76,0,0,1-9.24,13.56,42.17,42.17,0,0,1-14,8.94A47.27,47.27,0,0,1,205.2,85.42Zm0-7.92a37.26,37.26,0,0,0,14-2.58,33.12,33.12,0,0,0,11.16-7.32,34.28,34.28,0,0,0,7.38-11,37.7,37.7,0,0,0,0-27.72,34,34,0,0,0-7.38-11,32.83,32.83,0,0,0-11.16-7.32A37,37,0,0,0,205.2,8a37.65,37.65,0,0,0-14,2.58,33.49,33.49,0,0,0-18.72,18.36,37.55,37.55,0,0,0,0,27.66A33.37,33.37,0,0,0,191.2,75,37.65,37.65,0,0,0,205.2,77.5Z" transform="translate(0 0)"/><path d="M278,84.7h-8.88V.7H278ZM331.42,46H277.08V38.2h54.34ZM330.6.7h8.76v84H330.6Z" transform="translate(0 0)"/><path d="M353.28,84.7l38.4-84h8.74l38.4,84h-9.3L394.24,5.86h3.6L362.52,84.7Zm15.14-22.46,2.64-7.2H419.9l2.64,7.2Z" transform="translate(0 0)"/><ellipse class="cls-1" cx="194.76" cy="42.7" rx="26.24" ry="41"/><ellipse class="cls-1" cx="194.81" cy="43.25" rx="26.2" ry="41"/><path class="cls-1" d="M205.26,85.92a46.13,46.13,0,0,1-17.6-3.2,41.52,41.52,0,0,1-23.3-22.5,45.44,45.44,0,0,1,0-34,41.35,41.35,0,0,1,23.2-22.5,50.74,50.74,0,0,1,35.2,0,42.82,42.82,0,0,1,14,8.9,40.43,40.43,0,0,1,9.2,13.6,45.7,45.7,0,0,1,0,34.1,42,42,0,0,1-9.2,13.6,41.24,41.24,0,0,1-14,8.9A49.66,49.66,0,0,1,205.26,85.92Zm0-8a37.39,37.39,0,0,0,14-2.6,33.39,33.39,0,0,0,11.2-7.3,33.86,33.86,0,0,0,7.4-11,37.85,37.85,0,0,0,0-27.7,32.84,32.84,0,0,0-7.4-11,31.93,31.93,0,0,0-11.2-7.3,39,39,0,0,0-28,0,33.46,33.46,0,0,0-18.7,18.4,37.85,37.85,0,0,0,0,27.7,33.29,33.29,0,0,0,18.7,18.3A37.29,37.29,0,0,0,205.26,77.92Z" transform="translate(0 0)"/></svg>