<svg id="Layer_1" data-name="Layer 1" xmlns="http://www.w3.org/2000/svg" viewBox="0 0 544.21 527.15"><defs><style>.cls-1{fill:#5b4a58;}.cls-2{fill:#fff;stroke:#5b4a58;stroke-miterlimit:10;stroke-width:0.5px;}</style></defs><path class="cls-1" d="M510.6,770.22A293.62,293.62,0,0,1,402.11,750.6,255.32,255.32,0,0,1,258.45,611.5a279.84,279.84,0,0,1,0-209.81,256.29,256.29,0,0,1,143.05-139,309.73,309.73,0,0,1,217,0,260.26,260.26,0,0,1,86.39,55.17,251.45,251.45,0,0,1,57,83.81,281.58,281.58,0,0,1,0,210.3,251.32,251.32,0,0,1-57,83.68,260.11,260.11,0,0,1-86.39,55.17A291.72,291.72,0,0,1,510.6,770.22Zm0-48.88A229.8,229.8,0,0,0,597,705.42a204.09,204.09,0,0,0,68.87-45.17,211.5,211.5,0,0,0,45.54-67.88,232.58,232.58,0,0,0,0-171.06,209.67,209.67,0,0,0-45.54-67.88A202.42,202.42,0,0,0,597,308.26a228.68,228.68,0,0,0-86.39-16.05,232.54,232.54,0,0,0-86.4,15.92A206.72,206.72,0,0,0,308.68,421.8a231.71,231.71,0,0,0,0,170.69A205.82,205.82,0,0,0,424.2,705.67,232.22,232.22,0,0,0,510.6,721.34Z" transform="translate(-238.04 -243.09)"/><ellipse class="cls-1" cx="208.13" cy="263.5" rx="161.93" ry="253.01"/><polygon class="cls-2" points="246.66 356.83 190.41 324.31 131.74 352.2 145.29 288.66 100.64 241.47 165.25 234.73 196.33 177.68 222.71 237.05 286.58 248.97 238.26 292.41 246.66 356.83"/></svg>