<svg id="Layer_1" data-name="Layer 1" xmlns="http://www.w3.org/2000/svg" viewBox="0 0 818.11 792.09"><defs><style>.cls-1{fill:#93AB8C;}</style></defs><path class="cls-1" d="M410.23,792.36a441.25,441.25,0,0,1-163-29.48,383.73,383.73,0,0,1-215.88-209,420.49,420.49,0,0,1,0-315.28,385.14,385.14,0,0,1,215-208.82,465.33,465.33,0,0,1,326,0,391,391,0,0,1,129.82,82.9A378,378,0,0,1,787.86,238.6a423.3,423.3,0,0,1,0,316,378.08,378.08,0,0,1-85.72,125.76A390.88,390.88,0,0,1,572.32,763.3,438.35,438.35,0,0,1,410.23,792.36Zm0-73.44A345.63,345.63,0,0,0,540.05,695a307.12,307.12,0,0,0,103.5-67.88,316.06,316.06,0,0,0,68.43-102,349.5,349.5,0,0,0,0-257,315.1,315.1,0,0,0-68.43-102,304.5,304.5,0,0,0-103.5-67.93A343.63,343.63,0,0,0,410.23,74.3,349.35,349.35,0,0,0,280.41,98.22,310.57,310.57,0,0,0,106.82,268.47a348.26,348.26,0,0,0,0,256.49A309.28,309.28,0,0,0,280.41,695.77,349.22,349.22,0,0,0,410.23,719Z" transform="translate(-0.5 -0.3)"/><ellipse class="cls-1" cx="325.17" cy="396.33" rx="243.32" ry="380.19"/><path class="cls-1" d="M410.48,792.16a427.78,427.78,0,0,1-163.25-29.68C149.84,725.38,71.92,649.3,31.11,553.78a421.46,421.46,0,0,1,0-315.36c40.81-95.54,117.8-171.6,215.19-208.7,104.81-39,220.76-39,326.5,0A397.46,397.46,0,0,1,702.67,112.3,375.14,375.14,0,0,1,788,238.45c40.81,101.1,40.81,214.26,0,316.29-19.48,47.3-49.16,90-85.33,126.15-37.11,36.17-81.63,64-129.86,82.55C520.86,782.89,466.13,792.16,410.48,792.16Zm0-74.2c44.52,0,88.11-7.42,129.85-24.12,39-15.77,74.21-38,103.89-67.71a314.1,314.1,0,0,0,68.64-102,351.12,351.12,0,0,0,0-256.93c-15.77-38-39-73.28-68.64-102A296.18,296.18,0,0,0,540.33,97.43C498.59,80.73,455,73.3,410.48,73.3s-88.12,7.43-129.81,24.13c-78.89,30.61-141,92.75-173.5,170.67a351.12,351.12,0,0,0,0,256.93,308.77,308.77,0,0,0,173.5,169.74C322.36,710.54,366,718.89,410.48,718Z" transform="translate(-0.5 -0.3)"/></svg>